<?xml version="1.0" encoding="UTF-8"?>
<svg width="586px" height="69px" viewBox="0 0 586 69" version="1.1" xmlns="http://www.w3.org/2000/svg" xmlns:xlink="http://www.w3.org/1999/xlink">
    <!-- Generator: Sketch 43.1 (39012) - http://www.bohemiancoding.com/sketch -->
    <title>hodinkee-logo</title>
    <desc>Created with Sketch.</desc>
    <defs></defs>
    <g id="Page-1" stroke="none" stroke-width="1" fill="none" fill-rule="evenodd">
        <g id="hodinkee-logo" fill-rule="nonzero" fill="#000000">
            <path d="M46.2480392,36.2898693 L9.47941176,36.2898693 L9.47941176,67.4091503 L0,67.4091503 L0,1.43627451 L9.47941176,1.43627451 L9.47941176,27.2892157 L46.2480392,27.2892157 L46.2480392,1.43627451 L55.727451,1.43627451 L55.727451,67.504902 L46.2480392,67.504902 L46.2480392,36.2898693 Z M114.327451,0.47875817 C133.094771,0.47875817 147.361765,15.1287582 147.361765,34.4705882 C147.361765,53.7166667 132.99902,68.4624183 114.327451,68.4624183 C95.6558824,68.4624183 81.2931373,53.8124183 81.2931373,34.4705882 C81.3888889,15.1287582 95.751634,0.47875817 114.327451,0.47875817 L114.327451,0.47875817 Z M114.327451,59.3660131 C127.828431,59.3660131 137.978105,48.6418301 137.978105,34.279085 C137.978105,19.9163399 127.924183,9.19215686 114.327451,9.19215686 C100.730719,9.19215686 90.6767974,19.9163399 90.6767974,34.279085 C90.8683007,48.8333333 100.922222,59.3660131 114.327451,59.3660131 Z M178.002288,67.504902 L178.002288,1.43627451 L197.822876,1.43627451 C208.259804,1.43627451 215.05817,3.73431373 220.420261,7.66013072 C228.55915,13.6924837 233.633987,23.4591503 233.633987,34.5663399 C233.633987,45.4820261 228.55915,55.4401961 220.420261,61.472549 C215.05817,65.398366 208.164052,67.6964052 197.631373,67.6964052 L178.002288,67.6964052 L178.002288,67.504902 L178.002288,67.504902 Z M216.20719,15.8947712 C211.994118,12.3519608 206.632026,10.3411765 197.344118,10.3411765 L187.385948,10.3411765 L187.385948,58.5042484 L197.344118,58.5042484 C206.632026,58.5042484 211.994118,56.5892157 216.20719,52.9506536 C221.282026,48.5460784 224.154575,41.8434641 224.154575,34.3748366 C224.250327,27.0019608 221.282026,20.2993464 216.20719,15.8947712 Z M264.083007,1.43627451 L273.562418,1.43627451 L273.562418,67.504902 L264.083007,67.504902 L264.083007,1.43627451 Z M317.799673,18.9588235 L317.799673,67.504902 L308.320261,67.504902 L308.320261,1.43627451 L315.022876,1.43627451 L354.759804,49.9823529 L354.759804,1.43627451 L364.239216,1.43627451 L364.239216,67.504902 L357.536601,67.504902 L317.799673,18.9588235 Z M398.901307,1.43627451 L408.380719,1.43627451 L408.380719,29.3 L435.574183,1.43627451 L448.117647,1.43627451 L418.338889,32.0767974 L450.128431,67.4091503 L438.063725,67.4091503 L408.572222,34.3748366 L408.572222,67.4091503 L398.997059,67.4091503 L398.997059,1.43627451 L398.901307,1.43627451 Z M508.824183,27.2892157 L508.824183,36.2898693 L487.184314,36.2898693 L487.184314,58.4084967 L516.484314,58.4084967 L516.484314,67.4091503 L477.704902,67.4091503 L477.704902,1.43627451 L515.526797,1.43627451 L515.526797,10.4369281 L487.184314,10.4369281 L487.184314,27.3849673 L508.824183,27.3849673 L508.824183,27.2892157 L508.824183,27.2892157 Z M578.339869,27.2892157 L578.339869,36.2898693 L556.7,36.2898693 L556.7,58.4084967 L586,58.4084967 L586,67.4091503 L547.220588,67.4091503 L547.220588,1.43627451 L585.042484,1.43627451 L585.042484,10.4369281 L556.7,10.4369281 L556.7,27.3849673 L578.339869,27.3849673 L578.339869,27.2892157 L578.339869,27.2892157 Z" id="Shape"></path>
        </g>
    </g>
</svg>