<?xml version="1.0" encoding="utf-8"?>
<!-- Generator: Adobe Illustrator 20.1.0, SVG Export Plug-In . SVG Version: 6.00 Build 0)  -->
<svg version="1.1" id="Layer_1" xmlns="http://www.w3.org/2000/svg" xmlns:xlink="http://www.w3.org/1999/xlink" x="0px" y="0px"
	 viewBox="0 0 376.5 165.3" style="enable-background:new 0 0 376.5 165.3;" xml:space="preserve">
<style type="text/css">
	.st0{fill:#CAAD59;}
</style>
<g>
	<g>
		<path class="st0" d="M291.9,129.1c0-0.6-0.4-0.9-1.1-0.9h-1.2v3h0.5v-1.3h0.5l0.8,1.3h0.5l-0.9-1.3
			C291.5,129.8,291.9,129.6,291.9,129.1 M290.1,129.5v-0.9h0.6c0.3,0,0.7,0.1,0.7,0.4c0,0.5-0.4,0.5-0.7,0.5H290.1z M290.7,127.1
			c-1.5,0-2.7,1.1-2.7,2.6s1.2,2.6,2.7,2.6c1.4,0,2.7-1.1,2.7-2.6C293.3,128.2,292.1,127.1,290.7,127.1 M290.7,131.9
			c-1.2,0-2.1-0.9-2.1-2.2c0-1.2,0.9-2.2,2.1-2.2s2.1,0.9,2.1,2.2C292.8,131,291.9,131.9,290.7,131.9"/>
		<path class="st0" d="M60.6,156.4v-16.7c0.2-3.9-1.2-6.8-4.2-9.1c-6-3.5-13.4-0.5-18.5,2.8l-0.2-4.6h-2.8c-2.8,2.3-6.1,3.4-9.6,3.9
			v1.9c1,0.1,3.6,0.7,3.8,2.7v19.3c0,2.2-2.9,3.1-5,3.3v2.2c5.9-0.3,12.9-0.5,19.1,0v-2.2c-2.1-0.1-5-1.5-5-3.3v-18.4
			c1.4-2.9,5.8-5,10-3.8c1.9,0.5,3.3,3.1,3.5,5.4v16.8c0,2.2-2.9,3.1-5,3.3v2.2c5.9-0.3,12.9-0.5,19.1,0v-2.2
			C63.5,159.6,60.6,158.2,60.6,156.4 M82.5,157.8c-2.5,0-3-3.3-3-3.3v-21.9h7.2v-2.9h-7.2v-8.3H77c0,0-1.7,3-4.4,5.2
			c-2.7,2.2-6,4-6,4v2h4.6v22.1c0,3.9,2.1,7.7,8.3,7.7c6.2,0,8.1-4.4,8.1-4.4l-2-1.4C85.6,156.5,84.8,157.8,82.5,157.8 M110.3,156.4
			c-7.6-0.6-9.2-5-9.2-5l19.7-16l-0.9-1.6c0,0-1-0.1-2.4-1.2c-1.4-1-6.9-5.4-14.9-3.3c-7.7,2-14.9,9.5-12.1,20.7
			c2.6,10.6,12.1,12.2,17.3,12.3c7.3,0.1,12.6-5.9,13.1-6.7l-1.5-2C119.2,153.6,116.2,156.9,110.3,156.4 M99.4,138.6
			c0.8-3.9,1.7-5.9,5-7c3.4-1.1,5.6,1.2,6.4,2.4c0.7,1.2,2.2,3.8,1.3,4.5l-12.3,9.8C99.9,148.3,98.6,142.7,99.4,138.6 M142.7,129.4
			c-3,0.9-5.1,3.9-6,6.7l-0.1-7.4h-2.5c-2.8,2.3-6.1,3.4-9.6,3.9v1.9c1,0.1,3.6,0.7,3.8,2.7v19.3c0,2.2-2.9,3.1-5,3.3v2.2
			c5.9-0.3,12.6-0.5,18.8,0v-2.2c-2.1-0.1-5-1.5-5-3.3v-15.1c0.1-1.9,1-3.8,2.3-5c1.1-1.1,3,0.2,4.2,0.9c1.9,0.7,3.9,0.2,5.3-1.6
			c0.9-1.1,0.9-3.2-0.5-4.9C146.8,129.4,144.8,128.7,142.7,129.4 M252.2,129.4c-3,0.9-5.1,3.9-6,6.7l-0.1-7.4h-2.5
			c-2.8,2.3-6.1,3.4-9.6,3.9v1.9c1,0.1,3.6,0.7,3.8,2.7v19.3c0,2.2-2.9,3.1-5,3.3v2.2c5.9-0.3,12.6-0.5,18.8,0v-2.2
			c-2.1-0.1-5-1.5-5-3.3v-15.1c0-1.9,1-3.8,2.3-5c1.1-1.1,3,0.2,4.2,0.9c1.8,0.7,3.9,0.2,5.3-1.6c0.9-1.1,0.9-3.2-0.5-4.9
			C256.4,129.4,254.3,128.7,252.2,129.4 M190.1,156.4v-33.3v-7.4h-2.9c-2.8,2.3-6.1,3.4-9.6,3.9v1.9c1,0.1,3.6,0.7,3.8,2.7v32.2
			c0,2.2-2.9,3.1-5,3.3v2.2c5.9-0.3,12.6-0.5,18.8,0v-2.2C193,159.6,190.1,158.2,190.1,156.4 M181.9,116.4c2.1-1.2,3.2-3.5,2.6-5.8
			c-0.9-2.1-3.2-3.5-5.3-3.9c-7.4-1.6-13.4,0.8-19,7.4c-4.4,5.1-3.6,12.4-3.8,18.5h-5.1v2.7h5.1v21.1c0,2.2-2.9,3.1-5,3.3v2.2
			c5.9-0.3,12.4-0.5,18.6,0v-2.2c-2.1-0.1-5-1.5-5-3.3v-21.1h6.5v-2.7H165c0,0-0.3-16.9,1.4-19.5c1.6-2.6,2.9-2.4,5-2.4
			c2.8,0.2,3.7,3.5,5.8,5.1C178.2,116.9,180.3,116.9,181.9,116.4 M213.6,128.4c-9.9,0-18,7-17.9,17c0.1,9.3,8,16.9,17.9,16.9
			s17.9-7.6,17.9-16.9C231.4,135.6,224.4,128.4,213.6,128.4 M213.6,159.5c-5.4,0-8.5-6.2-8.5-14.2s3.1-14.5,8.5-14.4
			c5.4,0,8.4,6.5,8.5,14.4C222.1,153.4,219.2,159.5,213.6,159.5 M288.1,157.8c-1.5,0-2.3-0.9-2.3-4.3v-16.8c0,0-0.3-8.5-12.3-8.5
			c-10.4,0-13.4,6.4-13,8.8c0.2,1.2,1.5,2.1,2.9,2.2c2.8,0.1,4.5-3.5,6.1-5.9c1.5-2.4,3-2.7,4.2-2.6c1.9,0.1,4,2.3,4,4.6v5.8
			c0,0-1.6,0.6-3.6,1.2c-3,0.9-6.6,1.7-7.4,2.1c-0.9,0.4-6.9,2.5-6.9,9.9c0,0,0.4,7.6,9.2,7.7c5.2,0,9.1-4,9.1-4s2.4,4.3,7.1,4.1
			c5.9-0.2,7.6-6.2,7.6-6.2l-1.4-0.7C291.3,155.4,289.6,157.7,288.1,157.8 M277.6,151.4c-0.1,1.2,0.9,5.9-5.2,6
			c-4,0-4.1-3.7-4.1-5.1c-0.2-6.7,9.3-7.6,9.3-7.6L277.6,151.4L277.6,151.4z M2.8,109.7v2.2c2.1,0.1,5,1.5,5,3.3v41.3
			c0,2.2-2.9,3.1-5,3.3v2.2c5.9-0.3,13.2-0.5,19.4,0v-2.2c-2.1-0.1-5-1.5-5-3.3v-41.3c0-2.2,2.9-3.1,5-3.3v-2.2
			C16.4,110,9,110.2,2.8,109.7"/>
		<path class="st0" d="M213.8,65.8c0.4,0,0.8-0.3,1-0.7c2.6-8.3,4.3-11.6,8.1-18c0.3-0.5,0.1-1.1-0.3-1.3c-0.5-0.3-1.1-0.1-1.3,0.3
			c-4,6.9-5.5,10.1-8.3,18.6c-0.2,0.5,0.2,1,0.7,1.2C213.7,65.8,213.7,65.8,213.8,65.8 M361.3,62.4c-0.2-0.5-0.7-0.8-1.2-0.6
			s-0.8,0.7-0.6,1.2c2.4,7.4,3.7,15.2,3.7,23.4c0,15.9-4.9,30.7-13.3,42.8c-0.3,0.4-0.2,1,0.2,1.4c0.2,0.1,0.4,0.2,0.6,0.2
			c0.3,0,0.6-0.1,0.8-0.4c8.6-12.5,13.6-27.6,13.6-43.9C365.1,78,363.8,69.9,361.3,62.4 M238.1,28.7c0.2,0,0.4-0.1,0.6-0.2
			c13.2-11.1,30.2-17.8,48.8-17.8c11.6,0,22.5,2.6,32.3,7.2c0.5,0.2,1.1,0,1.3-0.5c0.2-0.5,0-1.1-0.5-1.3l0,0
			c-10-4.7-21.3-7.4-33.1-7.4c-19,0-36.5,6.9-50,18.2c-0.4,0.3-0.5,1-0.1,1.4C237.5,28.6,237.8,28.7,238.1,28.7"/>
		<path class="st0" d="M366.1,159.2c0-0.6-0.4-0.9-1.1-0.9h-1.2v3h0.5V160h0.5l0.8,1.3h0.5l-0.9-1.3
			C365.7,160,366.1,159.7,366.1,159.2 M364.3,159.7v-0.9h0.6c0.3,0,0.7,0.1,0.7,0.4c0,0.5-0.4,0.5-0.7,0.5H364.3z M364.9,157.2
			c-1.4,0-2.7,1.1-2.7,2.6s1.2,2.6,2.7,2.6c1.4,0,2.7-1.1,2.7-2.6C367.5,158.3,366.3,157.2,364.9,157.2 M364.9,162
			c-1.2,0-2.1-0.9-2.1-2.2c0-1.2,0.9-2.2,2.1-2.2s2.1,0.9,2.1,2.2S366,162,364.9,162"/>
		<path class="st0" d="M351.5,52.8c-2.9,1.4-5.2,1.8-8.3,1.4c-1.2-0.2-2-0.2-2.6-0.3c-0.4,0-0.7-0.1-1.1-0.1
			c4.3-2.5,5.2-7.3,5.2-7.3s2.4,1.4,6.8,2.2c2.5,0.5,4.9,0.4,5.9,0.9C355.5,50.3,354,51.6,351.5,52.8 M329.8,37.8
			c-1.3,0.3-3.8,0.5-6.2,0.6c-2.7,0.1-5.7,0.4-6.4,0.4c-1.3,0-1.1-1.2,1.8-1.7s7.2-1.6,9.4-3.8c2.2-2.2,1.5-6.8,2.4-6.9
			c0.8-0.1-0.3,4.7,3.4,5.6C330.5,34.2,332.3,37.1,329.8,37.8 M309.6,57.5c-6.6,3.8-6.5,6.9-6.8,7.5s-2.9-1.1-2.8-2.4
			c0.1-1.3,0.4-3,1-5.8c0.7-3.4,1.4-5.6,1.8-5.8s3.7-1.3,5.3-2.4c1.5-1.2,2.1-3.8,2.8-3.8c0.6,0-0.6,4.6,1.8,6.5s7.9,2.6,7.8,3.1
			C320.4,54.9,316.2,53.7,309.6,57.5 M314.2,102.4c-0.5,1.2-4.5-1.1-14.2-7.2c-8.5-5.3-12.1-7.1-11.8-12.3c0.2-3.6,4.1-6.8,7.5-7.6
			c1.6-0.3,2.1-0.1,4,1.1c2.3,1.5,2.8,2.1,2.3,2.4c-2.8,1.5-5,5.8-3.8,8.4C300.4,92.3,314.7,101.2,314.2,102.4 M290.3,92.4
			c-0.1,0.5-6.3,1.9-12,2.8s-7.8,1.6-7.7,0.6c0.1-1,4.1-0.7,8.4-3s5.2-5.3,6.2-5.4s0.3,0.3,1.9,2C288.8,91.2,290.5,91.9,290.3,92.4
			 M221.5,29.7c-3,0.8-4.9-0.8-5.2-1.2c-0.3-0.4-0.1-0.8,0.5-0.5c1.6,0.7,2.3,0.4,2.3,0.4s-0.3-1.3,0.2-2.8c0.2-0.6,0.7-1.2,1.2-1.5
			c0.4-0.3,0.7,0.3,0.4,0.5c-0.2,0.3-0.5,0.8-0.6,1.5c-0.2,1.4,1.3,1.7,2.1,1s1-1.7,1.2-2.3c0.2-0.6,0.6-0.3,0.7,0.1
			C224.2,25.2,224.5,28.9,221.5,29.7 M214.5,19.9c-3,0.8-4.8-0.9-5.2-1.3c-0.3-0.4-0.1-0.8,0.5-0.5c1.5,0.7,2.3,0.5,2.3,0.5
			s-0.4-1.7,0.1-2.8c0.5-1.2,2-1.9,2.2-2c0.6-0.2,0.7,0.4,0.4,0.5s-1.4,0.6-1.6,2c-0.2,1.4,1.3,1.7,2.1,1s1-1.7,1.2-2.3
			s0.6-0.3,0.7,0.1C217.3,15.4,217.6,19.1,214.5,19.9 M372.7,46.9L372.7,46.9c-1.1-0.7-2.9-1.5-6-3.1c-6.2-3.2-8.8-3-11.8-3.6
			c-3.9-0.9-2.8-1.6-8.7-3.3c-5.7-1.6-7.6-1.4-7.6-1.4c1.4-4.5,4.3-2,5.8-2.3c1.3-0.3,2-1,1.9-3s1.2-3.9,1.2-3.9s1-0.3,1.2-0.5
			c0.2-0.1,0.2-0.4,0-0.7c-0.3-0.5-0.9-1.6-1.1-2.8c-0.3-1.7,0.5-3,0.2-3.6c-5.1-1.6-14.9,3.1-13.9,1.8c7.8-5.3,17.8-5,15.8-6.2
			c-2.7-1.6-2.1-2.7-5.7-5.3c-1.9-1.3-4.4-1.7-7-1.4c0.5-0.9,1.8-3.2,1.3-4.4c-0.6-1.4-9.1,0.6-14.9,0.8c-5.8,0.2-9.2-1.1-9.2-1.1
			s0.9,2.3,4.8,3.2c3.6,0.8,6.6,0.2,7.4,0.1c0.1,0,0.6,0.8,0.6,0.8s-1.3,0.5-4.6,0.5c-3.3,0-6.1-1.1-6.1-1.1s2.1,2.5,5.7,3
			c3.8,0.5,6.2-0.3,6.2-0.3l0.6,0.8c-5.4,2.1-9.8-0.5-9.8-0.5s0.8,1.9,3.9,2.5c2.9,0.6,4.7,0.1,5,0c-0.9,1.2-1.2,2.7-1.5,4.2
			c-0.3,1.1-0.5,2.2-0.6,3.5c-0.9,3.8-5,6.9-4.4,7.3c0.6,0.4,7.5-3.2,7.5-3.2s0,4.6-2.3,7.6c-2.3,3-5.2,2.4-9.2,3.4
			c-2.2,0.6-2.8,1.1-4.2,0.9c-2-0.2-4.7-0.3-7.2,0.3c-3.3,0.9-7.2,3.3-9.4,3.8c-1.9,0.4-8.1,1-10.7,1.8l-1.9,0.6
			c-1.6,0.6-2.8,1-4,1.1c-0.7,0-1.6,0-2.6-0.2c-1.5-0.4-3.3-0.8-5.6-0.7c-2.4,0.1-3.7,0.3-7.7,1.4c-4.1,1.1-8.5,2.5-10.6,2.5
			c-3.1,0-4-0.7-6.5-1.7c-1.2-0.5-4.2-0.3-6.3,0.3c-1.2-0.9-2.3-1.8-2.9-2.5c-1.3-1.5-1.3-4.2-3.1-6.2s-2.1-4.5-2-6.3s0.4-2.3,0-4.3
			s-1.7-2.9-2-2.8s-0.7,2-0.2,3.4c0.6,2,0.3,3.8,0.3,5.7c0,1.1,0.7,3,0.5,3s-1.6-1.1-1.9-3.1c-0.1-0.8-0.1-5.1-1.2-6.5
			c-1.1-1.4-1.2-4.1-1.4-5.1c-0.6-3.6-1.5-6.4-2-6.1c-0.2,0.1-0.4,0.7-0.5,1.6c-0.3,2,0,4.4,0.2,5.8l0,0c-0.7-1.1-1.8-1.7-2.8-1
			c-0.2,0.1-0.5,0.4-0.8,0.6c0.3-1.7,0.4-3.5,0.4-4.7c0-2.1-0.7-2.2-2-2.6c-1.2-0.4-1.2-0.8-1.8-1.9c-0.7-1.1-1.7-1.7-2.7-1.1
			c-1,0.6-2.8,2.5-4.2,2.5s-1.9,0.4-2.7,2.3c-0.9,1.9-1.4,1.2-1.6,2.6c-0.2,1,1.3,5.1,5.3,6.4c1.2,0.4,2.3,0.6,3.3,0.8
			c-0.7,0.4-1.6,1.1-1.7,2.6c-0.2,2.4,2,5.8,5.5,6.9c1.6,0.5,4.1,0.7,6.1,0.5c2.8,0.4,4.6,2.1,6.5,3.4c1.2,0.9,3.3,3.4,4.4,4.4
			c0.4,0.4,3.1,2.3,3.3,2.5l0,0c-0.2,0.1-0.3,0.3-0.4,0.4c-0.6-0.2-3.6-2.4-4.4-3c-1.2-1-4.5-4.8-8.2-6.3c-0.6-0.2-1.6,0.2-3.4,0.4
			c-1.9,0.2-3.2-0.1-3.7-0.2c-0.6-0.1-1,0.6-3.8,1.6s-4.9,2.5-5.6,3c-0.7,0.5-0.3,0.9,0.2,1s5.6,1.2,7.9-0.1
			c2.3-1.3,4.4-2.1,6.2-2.1s3.6,0.7,5.7,2.7c2.1,2,2.5,1.6,3.7,1.9c1.2,0.3,3.4,1.7,5,3s2,1.6,4.1,2.7c2.1,1.1,13.8,9.2,14.5,9.5
			s1.5-0.9,1.2-1.2s-1.1-0.8-1.3-1.1c-0.2-0.3-0.3-1.3-0.5-1.6c-0.2-0.3-1.8-1.1-3.7-2.3c-1.4-0.8-2.8-1.8-4.1-2.7
			c3.7-0.4,9.3-0.3,17.2-0.1c5.2,0.2,9.7-1,13.3-1c4,0,7.1,1.2,11.2,1.2c7.5,0,9.1-0.1,9.1-0.1s-2.2,8.3-2.2,14.4
			c0,5-2.4,5.2-7.6,8.5c-3.7,2.4-5.1,5.4-5.1,5.4c-0.1,0-9.8,0.4-17.6,4.3c-7.6,3.8-9.1,4.1-9.6,4.3c-0.6,0.2-0.9,0.1-0.9,0.1
			c-0.1-0.1-7.9-3.4-14-4.3c-5.3-0.7-8.6,0.3-9.6,0.3c-5.6,0-11.1,0.2-11.1,0.2l3.6-2.7c1-0.6,2.7-1.8,2.9-2.8
			c0.2-1.5-8.2-4.1-13.2-6.9c-5.1-2.8-7.4-5.7-7.4-5.7s-0.4,2.4,2.6,5.2c2.7,2.5,5.5,3.4,6.3,3.8c0,0,0,0,0,0.1v0.9
			c-0.1,0-1.4-0.2-4.1-1.8c-2.8-1.7-4.7-4-4.7-4s0.6,3.3,3.4,5.5c3.1,2.4,5.5,2.8,5.5,2.8l0.1,0.5v0.5c-5.7-1-8.2-5.4-8.2-5.4
			s-0.3,1.9,2.1,4.1c1.7,1.6,3.9,2.9,6.2,3.7l0.1,1.7c-1.4-0.3-2.7-0.7-3.2-1.5c-0.8-1.1-2.1-2.4-3.2-2.6c-2.6-0.3-4.1,1.7-6.1,3.4
			c-2,1.6-3.6,0.8-6.7,1.9c-3,1.1-4.6,4.6-4.3,5.4s-0.2,0.9,4.3-0.2s4.7-1.2,9.1-0.6c4.4,0.6,7.2-0.6,10.2-0.7
			c4.8-0.1,5.1,0.8,13.8,2.7c8.7,1.9,22.9,5.3,23.1,5.4c0.2,0.1,3.2,1.6,8.1,1.2c5.1-0.4,7.9,0.1,14.2-0.7
			c13.2-1.8,16.6-3.8,16.6-3.8s4.7,3.2,11.1,6.8c10.2,5.8,17.4,8.9,17.4,8.9s2.5,10.3,5.7,15.2c1.6,2.5,4.1,4.6,4.4,5
			c2.4,2.8,4.6,5.3,6.7,7.9c-0.5,0-0.9,0.1-1.4,0.1c-5.8,0.2-9.2-1.1-9.2-1.1s0.9,2.3,4.8,3.2c3.6,0.8,6.6,0.2,7.4,0.1
			c0.1,0,0.6,0.8,0.6,0.8s-1.3,0.5-4.6,0.5c-3.3,0-6.1-1.1-6.1-1.1s2.1,2.5,5.7,3c3.8,0.5,6.2-0.3,6.2-0.3l0.5,0.6
			c0,0.1,0.1,0.1,0.1,0.2c-5.4,2-9.8-0.5-9.8-0.5s0.7,1.8,3.9,2.5c2.5,0.6,4.4,0.7,6.5,0.1c0.1,1.1-0.4,1.7-0.8,2.7
			c-0.6,1.3-1.6,3.4-1.1,4.4c1.1,2.4,4.7,2,7.2,2.8c2.4,0.9,2.6,2.7,5.1,4.7s6.4,1.6,6.8,0.9c0.5-0.6,0.9-0.3-2.4-3.6
			c-3.3-3.2-3.5-3.4-5.3-7.5c-1.7-3.8-1.8-2.9-4.7-7.2c0.7-0.7,1-1.2,1-1.2s2.1-3.3,1.5-4.7c-0.3-0.8-2.7-0.6-5.7-0.2
			c0,0-3.2-10.4-5.5-17.3s-5.8-14.1-6-14.3c-0.1-0.3-0.3-1.1-0.4-1.5s-0.6-1.8-1.5-2.9c-0.9-1-3.8-3.2-4.1-3.5c-0.3-0.3-2-2.7-6.1-7
			c-4-4.3-11.3-10.5-11.3-10.5c0.3-1.7,0.8-2.1,2.4-3.9s3.7-3.6,5-4.5c5.4-3.5,10.3-8.7,12.3-11l0,0c-0.5-0.2-0.9-0.4-1-0.7
			l-0.1-0.2v-0.2c0-0.1,0.1-3,3.7-3.9c0.5-0.1,0.9-0.2,1.3-0.3c0,0,0.2,0,0.5-0.1c-0.8-0.5-1-1.1-0.9-1c0.2,0.1,2,0.4,2.8,0.5h0.1
			h0.1c1.2,0.1,2.5,0.3,1.4,0.7c-2,0.6-2.1,0.5-5,1.3s-3,3-3,3c0.2,0.3,2.4,0.8,5.9,0.6s7.3-2.1,10-2.5c4.6-0.7,12.2,1.3,18.3-1.1
			c3.9-1.6,4.9-3.3,6.3-4.2c1.4-0.8,3.2-1.9,3.7-2.6C373.8,49.5,374,47.7,372.7,46.9"/>
		<path class="st0" d="M201.1,33.5c1.9,0,2.5-0.5,2.5-0.5s-0.9-1.2-1-2.9c0-0.8,0.2-1.6,0.5-2.1s0.8,0,0.6,0.4c-0.1,0.4-0.2,1,0,1.7
			c0.4,1.5,2,1.2,2.5,0.1s0.3-2.1,0.2-2.9c-0.1-0.7,0.5-0.6,0.7-0.2s2,4-0.7,6.1s-5.3,1.2-5.8,1C200.4,34,200.4,33.5,201.1,33.5
			 M198.4,35.7c0.2,0.8,1.2,1.6,3,2.2c0.5,0.2,0.2,1.4,1.6,1.5c5,0.6,12.5-1.1,13.9-2.2c0.7-0.5,0.2-1.8-1.3-2.9
			c-1.7-1.2-3.7-2.8-5-6c-1.3-3.3-2.7-3.7-3.8-4.1c-0.8-0.3-2.1-0.2-3.8,1.2c-1.7,1.4-3.1,1.3-4,3.1c-0.9,1.8,0.2,2.9,0,4
			C198.8,33.7,198.1,34.4,198.4,35.7"/>
		<path class="st0" d="M330.1,149c-6.3,4.3-13.3,7.7-20.8,9.9h-0.1c-0.5,0.2-0.8,0.7-0.6,1.2c0.2,0.5,0.7,0.8,1.2,0.6l0,0
			c7.7-2.3,14.8-5.8,21.3-10.2c0.4-0.3,0.6-0.9,0.3-1.4C331.1,148.8,330.5,148.7,330.1,149"/>
	</g>
</g>
</svg>
