<?xml version="1.0" encoding="UTF-8" standalone="no"?>
<!-- Created with Inkscape (http://www.inkscape.org/) -->

<svg xmlns:dc="http://purl.org/dc/elements/1.1/" xmlns:cc="http://creativecommons.org/ns#" xmlns:rdf="http://www.w3.org/1999/02/22-rdf-syntax-ns#" xmlns:svg="http://www.w3.org/2000/svg" xmlns="http://www.w3.org/2000/svg" xmlns:sodipodi="http://sodipodi.sourceforge.net/DTD/sodipodi-0.dtd" xmlns:inkscape="http://www.inkscape.org/namespaces/inkscape" width="995.90051" height="229.9959" id="svg3174" version="1.1" inkscape:version="0.48.1 " sodipodi:docname="Nouveau document 5">
  <defs id="defs3176" />
  <sodipodi:namedview inkscape:document-units="mm" pagecolor="#ffffff" bordercolor="#666666" borderopacity="1.0" inkscape:pageopacity="0.0" inkscape:pageshadow="2" inkscape:zoom="0.43415836" inkscape:cx="468.55452" inkscape:cy="-117.88019" inkscape:current-layer="layer1" id="namedview3178" showgrid="false" units="mm" fit-margin-top="0" fit-margin-left="0" fit-margin-right="0" fit-margin-bottom="0" inkscape:window-width="1366" inkscape:window-height="716" inkscape:window-x="-8" inkscape:window-y="-8" inkscape:window-maximized="1" />
  <metadata id="metadata3180">
    <rdf:RDF>
      <cc:Work rdf:about="">
        <dc:format>image/svg+xml</dc:format>
        <dc:type rdf:resource="http://purl.org/dc/dcmitype/StillImage" />
        <dc:title></dc:title>
      </cc:Work>
    </rdf:RDF>
  </metadata>
  <g inkscape:label="Layer 1" inkscape:groupmode="layer" id="layer1" transform="translate(-21.445475,-16.218402)">
    <g transform="matrix(5.6666121,0,0,5.6666121,241.35165,142.17362)" style="fill:#004a93;fill-rule:evenodd;stroke:none" id="g3060">
      <path inkscape:connector-curvature="0" d="M 6.3018,4.1733 C 6.3018,4.1733 10.3692,4.1733 10.3692,4.1733 11.9561,4.1733 12.5596,4.7203 12.5596,6.0613 12.5596,7.3533 11.9561,7.9003 10.3692,7.9003 10.3692,7.9003 6.3018,7.9003 6.3018,7.9003 6.3018,7.9003 6.3018,4.1733 6.3018,4.1733 z M 0,17.7393 C 0,17.7393 6.3018,17.7393 6.3018,17.7393 6.3018,17.7393 6.3018,12.2223 6.3018,12.2223 6.3018,12.2223 13.0508,12.2223 13.0508,12.2223 17.5206,12.2223 19.129,9.5903 19.129,6.1863 19.129,2.2353 17.4756,0 13.0059,0 13.0059,0 0,0 0,0 0,0 0,17.7393 0,17.7393 z" id="path3062" />
    </g>
    <g transform="matrix(5.6666121,0,0,5.6666121,361.52404,142.17362)" style="fill:#004a93;fill-rule:evenodd;stroke:none" id="g3064">
      <path inkscape:connector-curvature="0" d="M 0,0 C 0,0 16.9609,0 16.9609,0 16.9609,0 16.9609,4.3223 16.9609,4.3223 16.9609,4.3223 6.3027,4.3223 6.3027,4.3223 6.3027,4.3223 6.3027,6.7073 6.3027,6.7073 6.3027,6.7073 16.2021,6.7073 16.2021,6.7073 16.2021,6.7073 16.2021,11.0313 16.2021,11.0313 16.2021,11.0313 6.3027,11.0313 6.3027,11.0313 6.3027,11.0313 6.3027,13.4163 6.3027,13.4163 6.3027,13.4163 16.9609,13.4163 16.9609,13.4163 16.9609,13.4163 16.9609,17.7393 16.9609,17.7393 16.9609,17.7393 0,17.7393 0,17.7393 0,17.7393 0,0 0,0 z" id="path3066" />
    </g>
    <g transform="matrix(5.6666121,0,0,5.6666121,472.57604,142.17362)" style="fill:#004a93;fill-rule:evenodd;stroke:none" id="g3068">
      <path inkscape:connector-curvature="0" d="M 6.3028,4.1733 C 6.3028,4.1733 10.3692,4.1733 10.3692,4.1733 11.9558,4.1733 12.5598,4.7203 12.5598,6.0613 12.5598,7.3533 11.9558,7.9003 10.3692,7.9003 10.3692,7.9003 6.3028,7.9003 6.3028,7.9003 6.3028,7.9003 6.3028,4.1733 6.3028,4.1733 z M 0,17.7393 C 0,17.7393 6.3028,17.7393 6.3028,17.7393 6.3028,17.7393 6.3028,12.2223 6.3028,12.2223 6.3028,12.2223 13.0518,12.2223 13.0518,12.2223 17.5208,12.2223 19.1298,9.5903 19.1298,6.1863 19.1298,2.2353 17.4758,0 13.0058,0 13.0058,0 0,0 0,0 0,0 0,17.7393 0,17.7393 z" id="path3070" />
    </g>
    <g transform="matrix(5.6666121,0,0,5.6666121,589.59045,138.65406)" style="fill:#004a93;fill-rule:evenodd;stroke:none" id="g3072">
      <path inkscape:connector-curvature="0" d="M 4.58,10.8324 C 1.497,10.3094 0.223,8.3224 0.223,5.8374 0.223,1.2412 4.268,0 9.452,0 16.557,0 19.485,2.0615 19.709,5.8134 19.709,5.8134 12.379,5.8134 12.379,5.8134 12.379,5.0924 11.999,4.6444 11.419,4.3964 10.86,4.1244 10.145,4.0244 9.452,4.0244 7.575,4.0244 6.927,4.5454 6.927,5.2924 6.927,5.7884 7.128,6.1124 7.754,6.2114 7.754,6.2114 15.284,7.4534 15.284,7.4534 18.458,7.9744 20.424,9.6144 20.424,12.6214 20.424,16.9444 17.251,18.9814 10.167,18.9814 5.318,18.9814 0.021,18.2364 0,13.0184 0,13.0184 7.597,13.0184 7.597,13.0184 7.619,13.6144 7.821,14.0114 8.268,14.2854 8.736,14.5344 9.429,14.6584 10.413,14.6584 12.379,14.6584 12.916,14.0614 12.916,13.2164 12.916,12.6954 12.625,12.1734 11.777,12.0254 11.777,12.0254 4.58,10.8324 4.58,10.8324 z" id="path3074" />
    </g>
    <g transform="matrix(5.6666121,0,0,5.6666121,716.97022,142.17362)" style="fill:#004a93;fill-rule:evenodd;stroke:none" id="g3076">
      <path inkscape:connector-curvature="0" d="M 0,0 C 0,0 6.302,0 6.302,0 6.302,0 6.302,17.7393 6.302,17.7393 6.302,17.7393 0,17.7393 0,17.7393 0,17.7393 0,0 0,0 z" id="path3078" />
    </g>
    <g transform="matrix(5.6666121,0,0,5.6666121,763.83311,138.65406)" style="fill:#004a93;fill-rule:evenodd;stroke:none" id="g3080">
      <path inkscape:connector-curvature="0" d="M 21.385,11.4534 C 20.983,13.7894 20.267,15.6764 18.703,16.9684 17.162,18.2604 14.748,18.9814 10.905,18.9814 7.084,18.9814 0,18.6824 0,9.4914 0,0.2978 7.084,0 10.905,0 14.703,0 20.558,0.5459 21.385,7.5784 21.385,7.5784 14.279,7.5784 14.279,7.5784 14.1,6.3094 13.34,4.4714 10.905,4.4714 8.334,4.4714 6.703,5.8874 6.703,9.4914 6.703,13.0934 8.29,14.5084 10.591,14.5084 12.581,14.5084 13.765,13.5894 14.279,11.4534 14.279,11.4534 21.385,11.4534 21.385,11.4534 z" id="path3082" />
    </g>
    <g transform="matrix(5.6666121,0,0,5.6666121,893.74585,138.65406)" style="fill:#004a93;fill-rule:evenodd;stroke:none" id="g3084">
      <path inkscape:connector-curvature="0" d="M 6.705,9.4914 C 6.705,5.8874 8.336,4.4714 10.907,4.4714 13.476,4.4714 15.108,5.8874 15.108,9.4914 15.108,13.0934 13.476,14.5084 10.907,14.5084 8.336,14.5084 6.705,13.0934 6.705,9.4914 z M 0,9.4914 C 0,18.6824 7.084,18.9814 10.907,18.9814 14.728,18.9814 21.812,18.6824 21.812,9.4914 21.812,0.2978 14.728,0 10.907,0 7.084,0 0,0.2978 0,9.4914 z" id="path3086" />
    </g>
    <g transform="matrix(5.6666121,0,0,5.6666121,56.843905,33.262438)" style="fill:#004a93;fill-rule:evenodd;stroke:none" id="g3088">
      <path inkscape:connector-curvature="0" d="M 23.0391,19.3955 C 23.4453,10.8848 16.1064,1.3008 6.0996,0.1153 6.0996,0.1153 6.1172,0 6.1172,0 15.9814,0 23.5439,9.1319 23.5439,16.335 23.5342,17.836 23.415,18.7647 23.2041,19.4395 23.2041,19.4395 23.0391,19.3955 23.0391,19.3955 z M 22.4404,20.4776 C 21.7842,21.2791 20.959,22.0871 19.9922,22.8531 18.2139,12.6221 10.6943,3.6748 5.3789,1.0625 5.3789,1.0625 5.2656,1.1426 5.2656,1.1426 10.6113,5.5303 16.9873,14.0508 19.4668,23.2551 18.2803,24.1291 16.9092,24.9341 15.3945,25.5871 10.3496,19.834 5.6465,8.7393 4.1309,1.6993 4.1309,1.6993 3.9766,1.7452 3.9766,1.7452 4.0107,8.5791 8.8633,20.1807 14.7803,25.8421 13.4668,26.3591 12.0547,26.7641 10.5723,27.0041 4.8994,24.7571 0.8633,17.5606 0.8633,10.1885 0.8633,5.376 2.3301,2.3995 2.6133,1.7891 2.6133,1.7891 2.4922,1.7412 2.4922,1.7412 2.1494,2.2618 0,5.2364 0,10.4317 0,18.7657 4.1104,25.1351 9.5654,27.1411 7.6992,27.3441 5.7344,27.2821 3.7197,26.8661 3.7197,26.8661 3.6797,26.9931 3.6797,26.9931 4.2627,27.2081 6.2432,28.0391 9.2637,28.0391 16.0967,28.0391 20.7148,23.7941 22.5742,20.5674 22.5742,20.5674 22.4404,20.4776 22.4404,20.4776 z" id="path3090" />
    </g>
    <g transform="matrix(5.6666121,0,0,5.6666121,41.697645,16.218402)" style="fill:#008fd0;fill-rule:evenodd;stroke:none" id="g3092">
      <path inkscape:connector-curvature="0" d="M 11.253,0 C 6.0733,0 0,3.7383 0,7.1553 0,8.4766 1.21,9.5938 3.712,9.5938 9.5215,9.5938 14.919,5.6026 14.919,2.499 14.919,0.8662 13.3497,0 11.253,0 z M 13.3204,2.4024 C 13.3204,5.0186 8.2979,8.2168 4.0987,8.2168 2.2422,8.2168 1.2403,7.4864 1.2403,6.2813 1.2403,3.627 6.3213,0.4844 10.2598,0.4844 12.8282,0.4844 13.3204,1.791 13.3204,2.4024 z" id="path3094" />
    </g>
    <g transform="matrix(5.6666121,0,0,5.6666121,25.882283,19.251172)" style="fill:#ee702b;fill-rule:evenodd;stroke:none" id="g3096">
      <path inkscape:connector-curvature="0" d="M 0.72847,8.2021 C 0.58203,8.4541 0,9.5957 0,10.7656 0,12.9355 2.19137,14.9492 6.22267,14.9492 13.9795,14.9492 22.9405,9.2392 22.9405,3.9404 22.9405,1.5615 20.6885,0.2685 19.125,0 19.125,0 19.0957,0.0928 19.0957,0.0928 19.5821,0.2471 21.3633,1.0752 21.3633,3.1943 21.3633,7.417 13.4512,13.1699 5.57027,13.1699 2.55277,13.1699 0.65235,11.6816 0.65235,9.5117 0.65235,8.8252 0.79497,8.373 0.83297,8.2422 0.83297,8.2422 0.72847,8.2021 0.72847,8.2021 z" id="path3098" />
    </g>
    <g transform="matrix(5.6666121,0,0,5.6666121,20.813329,43.821036)" style="fill:#008b41;fill-rule:evenodd;stroke:none" id="g3100">
      <path inkscape:connector-curvature="0" d="M 27.0332,0 C 27.2451,0.1621 28.5234,1.2266 28.5234,3.2403 28.5234,10.1055 17.7666,16.8565 8.2568,16.8565 2.5859,16.8565 0,14.0567 0.11524,11.5703 0.11524,11.5703 0.2168,11.5703 0.2168,11.5703 0.43945,12.8613 2.2803,15.1719 7.2432,15.1719 16.7656,15.1719 27.3955,8.1865 27.3955,2.0664 27.3955,1.0166 27.1113,0.3623 26.9502,0.0713 26.9502,0.0713 27.0332,0 27.0332,0 z" id="path3102" />
    </g>
    <g transform="matrix(5.6666121,0,0,5.6666121,35.527834,80.145151)" style="fill:#e3001e;fill-rule:evenodd;stroke:none" id="g3104">
      <path inkscape:connector-curvature="0" d="M 28.0312,0 C 28.0762,0.1455 28.3076,0.8027 28.3076,1.832 28.3076,9.4687 17.4219,16.0066 7.9551,16.0066 3.082,16.0066 0.5371,13.6396 0,12.6786 0,12.6786 0.0869,12.6146 0.0869,12.6146 1.4355,13.7936 4.0908,14.6896 7.1894,14.6896 15.5517,14.6896 28.0273,8.3281 27.916,0.0263 27.916,0.0263 28.0312,0 28.0312,0 z" id="path3106" />
    </g>
  </g>
</svg>
