<svg width="100" height="30" viewBox="0 0 100 30" fill="none" xmlns="http://www.w3.org/2000/svg">
    <path fill-rule="evenodd" clip-rule="evenodd" d="M91.8902 0.0800044L91.9023 0V0.0800044H91.8902ZM91.8902 0.0800044C91.7283 1.12356 91.4524 1.97785 91.0623 2.67999C90.6623 3.39999 90.1823 3.95998 89.6223 4.39997C89.0623 4.83997 88.4623 5.19997 87.7823 5.39997C87.1023 5.63997 86.3823 5.79997 85.6623 5.91997L82.4623 6.39996C81.5823 6.51996 80.7423 6.71996 79.8623 6.99996C78.9824 7.27996 78.1824 7.67996 77.4624 8.23995C76.7424 8.79995 76.1424 9.55995 75.6624 10.5199C75.1824 11.4799 74.9024 12.7599 74.8224 14.3199H74.9024C75.7824 12.9999 76.9424 11.9599 78.3024 11.2399C79.6623 10.5199 81.1823 10.16 82.7823 10.16C84.3823 10.16 85.7023 10.3999 86.7423 10.8799C87.7823 11.3599 88.6223 11.8399 89.2623 12.3999C90.2223 13.1999 90.9423 14.1999 91.5023 15.3999C92.0623 16.5999 92.3423 18.0399 92.3423 19.7599C92.3423 21.6799 92.0223 23.2799 91.3423 24.5599C90.6623 25.8399 89.8623 26.8399 88.8223 27.5599C87.8223 28.3198 86.7023 28.7998 85.4623 29.1198C84.2223 29.3998 83.0223 29.5598 81.8623 29.5598C80.1023 29.5598 78.6224 29.2798 77.5024 28.7598C76.3824 28.2398 75.5024 27.7199 74.8624 27.1599C74.1824 26.5599 73.6624 25.9199 73.2224 25.1999C72.8224 24.4799 72.5024 23.7599 72.2624 22.9599C72.0624 22.1999 71.9024 21.3999 71.8224 20.6399C71.7424 19.8399 71.7024 19.1199 71.7024 18.3599C71.7024 17.2399 71.7824 16.0799 71.9024 14.8799C72.0224 13.6799 72.2624 12.4799 72.5424 11.3199C72.8224 10.1599 73.2224 9.07995 73.7424 8.03996C74.2224 6.99996 74.8224 6.11997 75.5424 5.35998C76.1424 4.71998 76.7424 4.19998 77.4224 3.79998C78.0624 3.39998 78.7424 3.03998 79.3824 2.79998C80.0623 2.55999 80.7023 2.35999 81.3423 2.23999C81.9823 2.11999 82.6223 2 83.2623 1.92L86.4623 1.52C87.1823 1.44 87.8223 1.32 88.5023 1.12C89.1423 0.920002 89.5423 0.600001 89.7023 0.0800044H91.8902ZM79.7023 12.8799C80.2623 12.4399 81.0223 12.1999 81.9823 12.1999C82.9423 12.1999 83.7423 12.4399 84.3823 12.9599C84.9823 13.3999 85.4623 13.9999 85.8223 14.7599C86.1823 15.4799 86.4223 16.3199 86.5423 17.2399C86.6623 18.1599 86.7423 19.0799 86.7423 19.9599C86.7423 20.4399 86.7023 21.0799 86.6223 21.9199C86.5423 22.7199 86.3823 23.5599 86.0623 24.3599C85.7423 25.1599 85.2623 25.8799 84.6223 26.4799C83.9823 27.0798 83.0623 27.3599 81.9423 27.3599C80.8223 27.3599 79.9823 27.0798 79.3424 26.4799C78.7024 25.8799 78.2624 25.1999 77.9424 24.3599C77.6224 23.5199 77.4224 22.6799 77.3424 21.8399C77.2624 20.9599 77.2224 20.2799 77.2224 19.7199C77.2224 18.3199 77.3424 17.1999 77.5824 16.3999C77.8224 15.5999 78.0624 14.9199 78.3424 14.4399C78.6624 13.8399 79.1423 13.3199 79.7023 12.8799ZM9.58307 29.6001C6.78308 29.6801 3.4631 29.1201 0.903113 27.8801L1.90311 25.2401C3.4631 26.2401 5.82308 27.0001 8.70307 27.0401C11.5831 27.0801 14.223 25.9201 15.863 23.5201C16.583 22.4801 17.103 21.2801 17.423 19.9201C17.703 18.5601 17.863 17.1601 17.823 15.6801C17.783 14.5201 17.663 13.5201 17.463 12.6002C17.263 11.6802 16.983 10.8802 16.703 10.2002C16.423 9.48017 16.063 8.88017 15.703 8.40018C15.343 7.92018 14.983 7.48019 14.583 7.12019C13.783 6.4002 12.903 5.8802 11.8631 5.4802C9.82306 4.6802 7.66308 4.8802 5.66309 5.80019L5.55031 5.85903C5.90855 6.03871 6.23402 6.25115 6.50298 6.52011C6.82298 6.84011 7.10298 7.2001 7.30298 7.6401C7.50297 8.0801 7.62298 8.5201 7.62298 8.9601C7.62298 9.92009 7.30298 10.7601 6.62298 11.4401C5.94299 12.1201 5.06299 12.4801 4.063 12.5201C3.103 12.5201 2.26301 12.2001 1.58301 11.5601C0.863018 10.9201 0.503015 10.0801 0.503015 9.1201C0.468214 8.25007 0.736197 7.50115 1.22793 6.87334C3.51866 2.75567 10.3229 1.83433 14.623 3.16022C16.343 3.68021 17.783 4.4402 19.023 5.40019C20.383 6.48019 21.543 7.88018 22.463 9.60017C23.423 11.3202 23.903 13.3602 23.943 15.7601C23.943 16.5601 23.903 17.3601 23.783 18.2001C23.663 19.0401 23.463 19.8801 23.143 20.7201C22.823 21.6001 22.423 22.4401 21.903 23.2801C21.383 24.1601 20.743 24.9601 19.943 25.7201C19.183 26.4801 18.423 27.0801 17.623 27.5601C16.823 28.0401 15.983 28.4401 15.103 28.7201C14.223 29.0001 13.343 29.2401 12.423 29.3601C11.5031 29.5201 10.5431 29.6001 9.58307 29.6001ZM28.1829 25.0401C28.1829 27.0001 27.1429 27.3201 25.4629 27.3601V29.2001H35.7828V27.4401C34.1028 27.4001 33.1428 27.0801 33.1428 25.1201V22.9201V20.3601H40.8228V21.1601V23.5201V25.1201C40.8228 27.0801 39.8628 27.4001 38.1828 27.4401V29.2001H48.5028V27.4401C46.8228 27.4001 45.7828 27.0801 45.7828 25.1201V22.2401V16.1602V14.2402C45.7828 12.2802 46.8228 11.9602 48.5028 11.9202V10.1602H38.1828V11.9202C39.8628 11.9602 40.8228 12.2802 40.8228 14.2402V15.4001V18.1601H38.1028H37.2228H36.7028H35.8228H33.1028V16.8801V16.8001V14.2002C33.1028 12.2802 34.0228 11.9602 35.6628 11.8802H35.7428V10.1202H25.4629V11.8802C27.1429 11.9202 28.1829 12.2402 28.1829 14.2002V15.2402V25.0401ZM59.4229 9.63984C60.9029 9.63984 62.2229 9.83985 63.3428 10.2798C64.4628 10.7198 65.4228 11.2798 66.2228 11.9198C66.5828 12.2398 66.9428 12.5998 67.3428 13.0798C67.7428 13.5198 68.1028 14.0798 68.3828 14.6798C68.7028 15.3198 68.9428 15.9998 69.1428 16.7998C69.3428 17.5998 69.4628 18.4798 69.4628 19.5198C69.4628 21.4798 69.1428 23.1198 68.4628 24.3998C67.7828 25.6797 66.9428 26.6798 65.9428 27.4398C64.9028 28.1997 63.7828 28.7197 62.5829 28.9997C61.3429 29.2797 60.1829 29.4397 59.1029 29.4397C57.7029 29.4397 56.3829 29.2397 55.1429 28.8397C53.9029 28.4397 52.8229 27.8398 51.9029 27.0398C50.9829 26.2398 50.2229 25.1998 49.7029 23.9598C49.1829 22.7198 48.9029 21.2798 48.9029 19.5598C48.9029 17.7598 49.1829 16.2398 49.7829 14.9598C50.3429 13.6798 51.1429 12.6798 52.1029 11.8798C53.0629 11.0798 54.1829 10.5198 55.4629 10.1198C56.7029 9.83985 58.0229 9.63984 59.4229 9.63984ZM59.1029 11.7598C58.5829 11.7598 58.1029 11.8398 57.7029 11.9998C57.3029 12.1598 56.9829 12.3598 56.7029 12.5998C56.4229 12.8398 56.1829 13.0798 55.9829 13.3598C55.7829 13.5998 55.6229 13.8798 55.5029 14.1198C55.2229 14.6398 54.9829 15.3198 54.7429 16.1998C54.5029 17.0398 54.3829 18.1998 54.3829 19.5998C54.3829 20.3198 54.4629 21.1198 54.5829 21.9998C54.7029 22.8798 54.9429 23.7598 55.3029 24.5598C55.6629 25.3598 56.1429 26.0397 56.7429 26.5997C57.3429 27.1597 58.1429 27.4398 59.0629 27.4398C60.0229 27.4398 60.8229 27.1597 61.4629 26.5997C62.1029 26.0397 62.5829 25.3598 62.9028 24.5598C63.2628 23.7598 63.5029 22.9198 63.6229 22.0398C63.7429 21.1598 63.8228 20.3998 63.8228 19.7198C63.8228 19.1598 63.7429 18.4398 63.6229 17.5598C63.5029 16.6798 63.2628 15.7998 62.9429 14.9598C62.6229 14.1198 62.1029 13.3598 61.5029 12.7598C60.9429 12.0398 60.1029 11.7598 59.1029 11.7598ZM96.5428 23.8C96.9828 23.8 97.3828 23.88 97.7828 24.04C98.1828 24.2 98.5028 24.44 98.8228 24.72C99.1028 25 99.3428 25.32 99.5428 25.72C99.7428 26.12 99.8228 26.48 99.8228 26.92C99.8228 27.76 99.5028 28.52 98.8628 29.12C98.2228 29.72 97.4628 30 96.5428 30C95.6628 30 94.9428 29.72 94.3028 29.12C93.6628 28.52 93.3828 27.8 93.3828 26.92C93.3828 26.04 93.7028 25.28 94.3028 24.68C94.9028 24.08 95.6628 23.8 96.5428 23.8Z" fill="black"></path>
</svg>
