<?xml version="1.0" encoding="utf-8"?>
<!-- Generator: Adobe Illustrator 23.0.6, SVG Export Plug-In . SVG Version: 6.00 Build 0)  -->
<svg version="1.1" id="Layer_1" xmlns="http://www.w3.org/2000/svg" xmlns:xlink="http://www.w3.org/1999/xlink" x="0px" y="0px"
	 viewBox="0 0 566.93 170.04" style="enable-background:new 0 0 566.93 170.04;" xml:space="preserve">
<style type="text/css">
	.st0{fill:#191414;}
</style>
<g>
	<g>
		<g>
			<path class="st0" d="M88,1.28c-46.25,0-83.74,37.49-83.74,83.74c0,46.25,37.49,83.74,83.74,83.74
				c46.25,0,83.74-37.49,83.74-83.74C171.74,38.77,134.25,1.28,88,1.28z M126.4,122.06c-1.5,2.47-4.72,3.24-7.18,1.74
				c-19.67-12.02-44.42-14.73-73.57-8.07c-2.81,0.64-5.61-1.12-6.25-3.92c-0.64-2.81,1.11-5.61,3.93-6.25
				c31.9-7.29,59.26-4.15,81.34,9.33C127.13,116.39,127.91,119.6,126.4,122.06z M136.65,99.26c-1.89,3.07-5.91,4.04-8.98,2.15
				c-22.5-13.83-56.82-17.84-83.45-9.76c-3.45,1.04-7.1-0.9-8.15-4.35c-1.04-3.45,0.91-7.09,4.35-8.14
				c30.42-9.23,68.23-4.76,94.07,11.13C137.57,92.17,138.54,96.19,136.65,99.26z M137.53,75.52c-26.99-16.03-71.52-17.5-97.29-9.68
				c-4.14,1.26-8.51-1.08-9.77-5.22c-1.25-4.14,1.08-8.51,5.22-9.77c29.58-8.98,78.76-7.24,109.83,11.2
				c3.72,2.21,4.94,7.02,2.74,10.73C146.06,76.5,141.25,77.73,137.53,75.52z"/>
		</g>
	</g>
	<g>
		<g>
			<path class="st0" d="M232.09,78.59c-14.46-3.45-17.03-5.87-17.03-10.95c0-4.8,4.52-8.04,11.25-8.04c6.52,0,12.98,2.46,19.76,7.51
				c0.21,0.15,0.46,0.21,0.71,0.17c0.25-0.04,0.48-0.18,0.63-0.39l7.06-9.95c0.29-0.41,0.21-0.97-0.18-1.29
				c-8.07-6.47-17.15-9.62-27.77-9.62c-15.61,0-26.52,9.37-26.52,22.77c0,14.38,9.41,19.46,25.66,23.39
				c13.84,3.19,16.17,5.86,16.17,10.63c0,5.29-4.72,8.58-12.32,8.58c-8.44,0-15.32-2.84-23.03-9.51c-0.19-0.16-0.45-0.24-0.69-0.23
				c-0.25,0.02-0.49,0.14-0.65,0.33l-7.92,9.42c-0.33,0.39-0.29,0.98,0.09,1.31c8.96,8,19.98,12.22,31.87,12.22
				c16.82,0,27.69-9.19,27.69-23.42C256.89,89.52,249.71,82.87,232.09,78.59z"/>
			<path class="st0" d="M294.95,64.33c-7.29,0-13.27,2.87-18.21,8.76v-6.62c0-0.52-0.42-0.95-0.95-0.95h-12.95
				c-0.52,0-0.95,0.43-0.95,0.95v73.6c0,0.52,0.42,0.95,0.95,0.95h12.95c0.52,0,0.95-0.43,0.95-0.95v-23.23
				c4.93,5.54,10.92,8.24,18.21,8.24c13.55,0,27.27-10.43,27.27-30.37C322.22,74.76,308.5,64.33,294.95,64.33z M307.16,94.7
				c0,10.15-6.25,17.24-15.21,17.24c-8.85,0-15.53-7.41-15.53-17.24c0-9.83,6.68-17.24,15.53-17.24
				C300.76,77.46,307.16,84.71,307.16,94.7z"/>
			<path class="st0" d="M357.37,64.33c-17.45,0-31.12,13.44-31.12,30.59c0,16.97,13.58,30.26,30.9,30.26
				c17.51,0,31.22-13.39,31.22-30.48C388.38,77.67,374.76,64.33,357.37,64.33z M357.37,112.05c-9.28,0-16.28-7.46-16.28-17.34
				c0-9.93,6.75-17.13,16.06-17.13c9.34,0,16.39,7.46,16.39,17.35C373.54,104.84,366.74,112.05,357.37,112.05z"/>
			<path class="st0" d="M425.64,65.51H411.4V50.94c0-0.52-0.42-0.95-0.95-0.95h-12.94c-0.52,0-0.95,0.43-0.95,0.95v14.57h-6.23
				c-0.52,0-0.94,0.43-0.94,0.95v11.13c0,0.52,0.42,0.95,0.94,0.95h6.23v28.79c0,11.63,5.79,17.53,17.21,17.53
				c4.64,0,8.5-0.96,12.13-3.02c0.29-0.16,0.48-0.48,0.48-0.82v-10.6c0-0.33-0.17-0.64-0.45-0.81c-0.28-0.18-0.63-0.19-0.92-0.04
				c-2.49,1.25-4.91,1.83-7.6,1.83c-4.15,0-6.01-1.89-6.01-6.11V78.53h14.25c0.52,0,0.94-0.43,0.94-0.95V66.46
				C426.59,65.94,426.17,65.51,425.64,65.51z"/>
			<path class="st0" d="M475.28,65.57v-1.79c0-5.26,2.02-7.61,6.54-7.61c2.7,0,4.87,0.54,7.3,1.35c0.3,0.09,0.61,0.05,0.85-0.13
				c0.25-0.18,0.39-0.47,0.39-0.77V45.7c0-0.42-0.27-0.79-0.67-0.91c-2.57-0.76-5.85-1.55-10.76-1.55
				c-11.96,0-18.28,6.73-18.28,19.47v2.74h-6.22c-0.52,0-0.95,0.43-0.95,0.95v11.18c0,0.52,0.43,0.95,0.95,0.95h6.22v44.41
				c0,0.52,0.42,0.95,0.94,0.95h12.95c0.52,0,0.95-0.43,0.95-0.95V78.53h12.09l18.52,44.4c-2.1,4.67-4.17,5.59-6.99,5.59
				c-2.28,0-4.68-0.68-7.14-2.02c-0.23-0.13-0.5-0.15-0.75-0.07c-0.25,0.09-0.46,0.27-0.56,0.51l-4.39,9.63
				c-0.21,0.45-0.03,0.99,0.41,1.22c4.58,2.48,8.72,3.54,13.83,3.54c9.56,0,14.84-4.45,19.5-16.43l22.46-58.04
				c0.11-0.29,0.08-0.62-0.1-0.88c-0.18-0.26-0.47-0.41-0.78-0.41h-13.48c-0.4,0-0.77,0.26-0.9,0.64l-13.81,39.44l-15.12-39.46
				c-0.14-0.37-0.49-0.61-0.88-0.61H475.28z"/>
			<path class="st0" d="M446.5,65.51h-12.95c-0.52,0-0.95,0.43-0.95,0.95v56.48c0,0.52,0.43,0.95,0.95,0.95h12.95
				c0.52,0,0.95-0.43,0.95-0.95V66.46C447.45,65.94,447.03,65.51,446.5,65.51z"/>
			<path class="st0" d="M440.1,39.79c-5.13,0-9.29,4.15-9.29,9.28c0,5.13,4.16,9.29,9.29,9.29c5.13,0,9.28-4.16,9.28-9.29
				C449.38,43.94,445.22,39.79,440.1,39.79z"/>
		</g>
		<g>
			<path class="st0" d="M553.52,83.67c-5.12,0-9.11-4.11-9.11-9.11c0-5,4.04-9.16,9.16-9.16c5.12,0,9.11,4.11,9.11,9.11
				C562.68,79.5,558.64,83.67,553.52,83.67z M553.57,66.31c-4.67,0-8.2,3.71-8.2,8.25c0,4.54,3.51,8.2,8.15,8.2
				c4.67,0,8.2-3.71,8.2-8.25C561.72,69.97,558.21,66.31,553.57,66.31z M555.59,75.44l2.58,3.61h-2.17l-2.32-3.31h-1.99v3.31h-1.82
				v-9.56h4.26c2.22,0,3.68,1.14,3.68,3.05C557.81,74.11,556.9,75.06,555.59,75.44z M554.05,71.13h-2.37v3.03h2.37
				c1.18,0,1.89-0.58,1.89-1.51C555.94,71.66,555.23,71.13,554.05,71.13z"/>
		</g>
	</g>
</g>
</svg>
